<?xml version="1.0" encoding="UTF-8" standalone="no"?>
<!-- Created with Inkscape (http://www.inkscape.org/) -->

<svg
   width="50mm"
   height="50mm"
   viewBox="0 0 50 49.999998"
   version="1.1"
   id="svg1"
   xml:space="preserve"
   inkscape:version="1.3-dev (77bc73e, 2022-05-18)"
   sodipodi:docname="logo_no_text_squared.svg"
   inkscape:export-filename="logo_no_text_squared.png"
   inkscape:export-xdpi="96"
   inkscape:export-ydpi="96"
   xmlns:inkscape="http://www.inkscape.org/namespaces/inkscape"
   xmlns:sodipodi="http://sodipodi.sourceforge.net/DTD/sodipodi-0.dtd"
   xmlns="http://www.w3.org/2000/svg"
   xmlns:svg="http://www.w3.org/2000/svg"><sodipodi:namedview
     id="namedview1"
     pagecolor="#ffffff"
     bordercolor="#000000"
     borderopacity="0.25"
     inkscape:showpageshadow="2"
     inkscape:pageopacity="0.0"
     inkscape:pagecheckerboard="true"
     inkscape:deskcolor="#d1d1d1"
     inkscape:document-units="mm"
     showgrid="false"
     inkscape:zoom="2.6310015"
     inkscape:cx="105.47314"
     inkscape:cy="70.125388"
     inkscape:window-width="1512"
     inkscape:window-height="831"
     inkscape:window-x="1018"
     inkscape:window-y="242"
     inkscape:window-maximized="0"
     inkscape:current-layer="g5" /><defs
     id="defs1" /><g
     inkscape:label="Layer 1"
     inkscape:groupmode="layer"
     id="layer1"
     transform="translate(-129.85097,-166.69157)"><g
       id="g5"
       transform="matrix(0.47201383,0,0,0.47201383,56.456777,78.379638)"><g
         id="g10"
         transform="matrix(0.67502662,0,0,0.67502662,74.903721,92.701909)"><path
           d="m 139.35994,183.14919 52.8337,-3.90242 c 6.48998,-0.55666 8.15711,-0.18136 12.23806,2.78526 l 16.86519,11.88096 c 2.78144,2.04334 3.70762,2.60001 3.70762,4.82478 v 65.16054 c 0,4.08383 -1.48285,6.49955 -6.67426,6.86811 l -61.35368,3.71621 c -3.8957,0.18418 -5.75095,-0.37238 -7.79142,-2.97239 l -12.41949,-16.15001 c -2.22762,-2.97239 -3.15095,-5.19716 -3.15095,-7.79812 v -57.92007 c 0,-3.33905 1.48287,-6.12334 5.74523,-6.49285 z"
           fill="#ffffff"
           id="path1"
           style="display:inline;fill:none;fill-opacity:1;stroke-width:0.954832" /><path
           id="path2"
           style="display:inline;fill:#a03fb1;fill-opacity:1;stroke:none;stroke-width:0.954832"
           d="m 196.2699,179.03004 c -1.13278,-0.003 -2.45375,0.0774 -4.07623,0.21652 v 0.001 l -52.83347,3.9026 c -4.26236,0.36856 -5.74748,3.15351 -5.74539,6.49159 l 0.0299,47.90044 c -2.72394,-1.25022 -5.68986,-4.47964 -6.56928,-7.75001 -1.63668,-6.08647 3.34317,-18.61014 3.34317,-18.61014 0,0 -8.68365,14.71584 -8.51464,22.8389 0.0896,4.30649 1.94486,7.30444 4.0885,9.42784 2.14363,2.1234 4.79895,3.66583 7.65178,4.86381 0.0829,1.14499 0.36065,2.23607 0.86894,3.37632 0.5083,1.14025 1.24715,2.32966 2.25231,3.67131 l 12.4194,16.14889 c 2.04047,2.59999 3.89609,3.15767 7.79177,2.97243 l 61.3544,-3.71399 c 5.18757,-0.36951 6.67453,-2.78548 6.67453,-6.86831 v -39.81359 c 0.56404,-0.4585 1.12705,-0.91796 1.68155,-1.3839 12.04112,-10.11809 20.31534,-22.28162 17.69401,-24.24761 -0.30402,-0.42766 -0.70345,-0.61729 -1.19993,-0.60152 -2.82092,0.0896 -8.77691,6.82426 -18.17563,14.37742 v -13.49117 c 0,-2.11019 -0.83375,-2.71879 -3.28766,-4.51962 l -17.28628,-12.18737 c -3.05998,-2.225 -4.76342,-2.99212 -8.16178,-3.00188 z m -0.34778,5.36143 c 3.30527,0.0528 5.18807,1.33286 6.64766,2.4691 l 8.71109,6.31124 c 0.37238,0.18806 1.29836,1.29863 0.18397,1.29863 l -52.45158,3.15795 -0.64957,0.045 v -0.001 c -5.01,0.33704 -6.14582,0.41341 -8.99118,-1.90014 l -7.23419,-5.75417 c -0.73522,-0.74477 -0.36563,-1.67355 1.48673,-1.8588 l 50.7907,-3.71141 c 0.53316,-0.0465 1.03419,-0.0639 1.50637,-0.0563 z m 20.1781,16.37316 c 1.78509,-4.2e-4 2.59674,1.2823 2.59674,3.54345 v 12.68243 c -0.2629,0.18528 -0.52414,0.37078 -0.79117,0.55552 -18.30184,12.66205 -38.86106,22.00843 -60.35704,22.84977 -1.55451,0.0608 -3.25831,0.0401 -5.02553,-0.0455 v -32.3241 c 0,-2.41572 0.74168,-3.52994 2.96261,-3.71709 l 60.24438,-3.52691 c 0.12771,-0.0115 0.251,-0.0175 0.37001,-0.0176 z m 2.59694,25.22969 c -9.77394,7.39905 -21.26422,13.76226 -33.1064,17.84131 -11.84218,4.07905 -23.91914,5.81539 -32.9311,5.88575 -6.44407,0.0503 -13.25228,-0.63118 -19.00785,-3.52981 -3.99518,-2.01206 -8.27808,-5.17388 -9.8239,-9.14218 -2.70147,-6.93496 5.33547,-23.17731 5.33547,-23.17731 0,0 -7.54233,14.83381 -4.14127,23.19918 1.74091,3.39315 5.09738,5.76429 8.46609,7.41497 6.02635,2.95294 13.05257,3.91105 19.76315,3.84046 12.64936,-0.13305 25.33518,-3.35408 37.0928,-8.02123 12.65681,-5.02409 24.36152,-12.57679 34.98111,-21.10091 7.07611,-5.67985 18.76949,-19.71532 18.76949,-19.71532 0,0 -7.54965,11.84253 -19.01136,21.80562 m -6.38644,7.61638 v 30.34492 c 0,2.41573 -0.37258,4.45884 -3.70779,4.64313 l -57.64971,3.34191 c -3.33521,0.18439 -4.81521,-0.92608 -4.81521,-3.89847 h -0.001 v -11.54038 c 23.14938,0.35509 46.85214,-8.98807 66.17374,-22.89111 z"
           sodipodi:nodetypes="ccccscacsscsccccscccscscccccccccccccccccccccsccccsccssasccaaaascccccccccc" /><path
           fill="#a03fb1"
           d="m 258.70774,208.36455 -4.61039,-8.01592 c 3.30923,-1.69543 6.34496,-3.80545 9.10355,-6.17308 l -4.49316,14.189 m -19.08903,-19.38845 -8.87998,-2.58027 12.72082,-7.72657 c -1.64674,3.24103 -2.97759,6.69018 -3.84084,10.30684 m 27.70105,-22.34777 c 0.61775,-0.0742 1.16906,-0.14046 1.64546,-0.0861 0.74353,3.02088 1.08466,9.37937 -5.28322,17.48371 -3.29652,4.22236 -7.42701,7.64992 -12.22552,10.1731 l -5.29882,-4.06218 c 1.41699,-5.33907 3.76855,-10.16386 7.04828,-14.33947 5.35635,-6.81929 10.62876,-8.7506 14.11379,-9.16934 m -0.53004,-4.4114 c -4.3673,0.52475 -10.80162,2.84176 -17.0895,10.84702 -4.25015,5.41097 -6.50099,11.07392 -7.81661,15.95326 -0.41898,1.72856 0.21768,3.48688 1.57915,4.57636 l 5.26004,4.11159 c 0.93888,0.73745 2.12478,1.10966 3.29382,0.96919 0.50687,-0.0609 1.02074,-0.25711 1.50426,-0.51649 5.30072,-2.78564 9.95181,-6.66166 13.64753,-11.37326 10.98436,-13.98446 4.99631,-24.34098 4.99631,-24.34098 0,0 -2.11056,-0.619 -5.37501,-0.22677 m -8.34572,17.69506 c -1.92715,-1.5138 -2.26373,-4.31506 -0.75002,-6.24222 1.51379,-1.92723 4.31505,-2.26381 6.24221,-0.75002 1.90513,1.51636 2.2638,4.31497 0.75003,6.24221 -1.51372,1.92714 -4.31499,2.26373 -6.24222,0.75003 m -10.61068,17.09451 -3.48373,-2.73636 3.48373,2.73636"
           id="path1-8"
           style="stroke-width:2.22159"
           sodipodi:nodetypes="ccccccccccccccccscccscccccscscccc" /><path
           style="fill:none;stroke:none;stroke-width:0.209841"
           d="m 248.87603,192.07925 c -2.05363,-1.58936 -2.50492,-2.03485 -2.44664,-2.41517 0.29459,-1.92266 2.67498,-7.44355 4.42031,-10.25215 4.21536,-6.78339 9.82619,-11.3343 15.38183,-12.47609 2.40819,-0.49494 2.64519,-0.46501 2.76877,0.34957 0.30408,2.00432 0.32118,2.62587 0.12084,4.39436 -0.80377,7.0953 -6.51659,15.17453 -14.47448,20.4702 -0.8656,0.57602 -1.95153,1.23424 -2.41318,1.46271 l -0.83936,0.4154 z m 14.28403,-11.60383 c 3.1496,-1.43051 3.40935,-6.14186 0.43473,-7.8851 -2.39098,-1.40121 -5.2203,-0.59407 -6.46415,1.84408 -0.64973,1.27358 -0.48605,3.38255 0.35522,4.57695 1.2216,1.73437 3.68158,2.3691 5.6742,1.46407 z"
           id="path5" /></g></g></g></svg>
