<?xml version="1.0" encoding="UTF-8" standalone="no"?>
<!-- Created with Inkscape (http://www.inkscape.org/) -->

<svg
   width="1280"
   height="640"
   viewBox="0 0 338.66666 169.33333"
   version="1.1"
   id="svg1"
   xml:space="preserve"
   inkscape:version="1.3-dev (77bc73e, 2022-05-18)"
   sodipodi:docname="logo_with_text.svg"
   xmlns:inkscape="http://www.inkscape.org/namespaces/inkscape"
   xmlns:sodipodi="http://sodipodi.sourceforge.net/DTD/sodipodi-0.dtd"
   xmlns="http://www.w3.org/2000/svg"
   xmlns:svg="http://www.w3.org/2000/svg"><sodipodi:namedview
     id="namedview1"
     pagecolor="#ffffff"
     bordercolor="#000000"
     borderopacity="0.25"
     inkscape:showpageshadow="2"
     inkscape:pageopacity="0.0"
     inkscape:pagecheckerboard="true"
     inkscape:deskcolor="#d1d1d1"
     inkscape:document-units="mm"
     showgrid="false"
     inkscape:zoom="0.65353529"
     inkscape:cx="801.79297"
     inkscape:cy="462.86713"
     inkscape:window-width="2549"
     inkscape:window-height="1031"
     inkscape:window-x="452"
     inkscape:window-y="225"
     inkscape:window-maximized="0"
     inkscape:current-layer="layer1" /><defs
     id="defs1" /><g
     inkscape:label="Layer 1"
     inkscape:groupmode="layer"
     id="layer1"
     transform="translate(-30.116737,-154.01296)"><g
       id="g1"
       transform="translate(-14.448497,2.1166667)"><path
         d="m 153.80844,181.03252 52.8337,-3.90242 c 6.48998,-0.55666 8.15711,-0.18136 12.23806,2.78526 l 16.86519,11.88096 c 2.78144,2.04334 3.70762,2.60001 3.70762,4.82478 v 65.16054 c 0,4.08383 -1.48285,6.49955 -6.67426,6.86811 l -61.35368,3.71621 c -3.8957,0.18418 -5.75095,-0.37238 -7.79142,-2.97239 l -12.41949,-16.15001 c -2.22762,-2.97239 -3.15095,-5.19716 -3.15095,-7.79812 v -57.92007 c 0,-3.33905 1.48287,-6.12334 5.74523,-6.49285 z"
         fill="#ffffff"
         id="path1"
         style="display:inline;stroke-width:0.954832" /><path
         fill-rule="evenodd"
         clip-rule="evenodd"
         d="m 206.64214,177.13107 -52.8337,3.9024 c -4.26236,0.36856 -5.74523,3.1538 -5.74523,6.4919 v 57.92007 c 0,2.60001 0.92333,4.82478 3.15095,7.79812 l 12.41949,16.14906 c 2.04047,2.60001 3.89572,3.15763 7.79142,2.97239 l 61.35463,-3.71431 c 5.18759,-0.36951 6.67426,-2.78523 6.67426,-6.86808 v -65.16057 c 0,-2.11019 -0.83356,-2.71841 -3.28747,-4.51924 L 218.8802,179.91536 c -4.07998,-2.96667 -5.74808,-3.34192 -12.23806,-2.78526 z m -33.8297,18.42443 c -5.01,0.33704 -6.14625,0.41343 -8.99163,-1.90012 l -7.23381,-5.7538 c -0.73522,-0.74477 -0.36571,-1.67383 1.48667,-1.85908 l 50.79037,-3.71142 c 4.26523,-0.37238 6.48616,1.11429 8.15426,2.41285 l 8.71093,6.31145 c 0.37238,0.18806 1.29856,1.29856 0.18417,1.29856 l -52.45177,3.15762 -0.6493,0.0449 z m -5.84071,65.67045 v -55.31627 c 0,-2.41572 0.74192,-3.53001 2.96285,-3.71716 l 60.24416,-3.52714 c 2.04334,-0.18439 2.96665,1.11429 2.96665,3.52619 v 54.94768 c 0,2.41573 -0.37239,4.45908 -3.7076,4.64337 l -57.64988,3.3419 c -3.33523,0.18439 -4.8152,-0.92618 -4.8152,-3.89857 z"
         fill="#000000"
         id="path2"
         style="display:inline;fill:#a03fb1;fill-opacity:1;stroke-width:0.954832"
         sodipodi:nodetypes="ccssccccssccccccccccccccccsccsscccc" /><path
         style="fill:#ffffff;fill-opacity:1;stroke:#ffffff;stroke-width:0.327668"
         d="m 168.16563,264.02969 -0.91938,-0.7908 V 233.5656 c 0,-29.48406 0.004,-29.67756 0.67218,-30.34544 0.42418,-0.42418 1.27039,-0.73497 2.29368,-0.84241 2.57198,-0.27002 57.39435,-3.4192 59.42607,-3.41365 1.00713,0.002 1.99338,0.11335 2.19167,0.24575 1.08514,0.72459 1.11396,1.5191 1.11396,30.70865 0,25.56867 -0.0607,29.15363 -0.50718,30.0173 -0.88855,1.71826 2.74303,1.36274 -38.15316,3.73502 -24.28407,1.40864 -24.88777,1.41695 -26.11784,0.35887 z"
         id="path6" /><path
         style="fill:#ffffff;fill-opacity:1;stroke:#ffffff;stroke-width:0.327668"
         d="m 168.14734,264.02056 -1.06491,-0.89667 0.004,-29.21531 c 0.004,-31.27601 -0.0382,-30.45353 1.6431,-31.22525 0.44528,-0.20447 3.68488,-0.53911 7.1991,-0.74384 40.7663,-2.37487 51.63139,-2.97826 53.64733,-2.97923 2.29587,-0.001 2.38241,0.0283 2.87225,0.97551 0.44597,0.86238 0.49487,4.43227 0.41801,30.50164 l -0.087,29.52491 -0.86667,0.74544 c -0.67402,0.5797 -1.43885,0.79356 -3.44053,0.96204 -4.84339,0.4076 -47.45561,2.83712 -53.36248,3.04243 l -5.89803,0.2049 z"
         id="path7" /><path
         style="fill:#ffffff;fill-opacity:1;stroke:#ffffff;stroke-width:0.327668"
         d="m 167.1374,195.26132 c -0.94785,-0.26581 -2.93477,-1.58813 -5.97995,-3.97965 -4.59569,-3.60924 -5.34823,-4.57994 -3.82317,-4.93141 1.77245,-0.40848 50.82053,-3.81 53.35364,-3.7001 3.3492,0.14531 3.30807,0.12415 10.62366,5.44587 l 5.24269,3.81374 -1.31068,0.23914 c -0.72086,0.13149 -12.88556,0.90973 -27.03264,1.72931 -14.1471,0.81961 -26.60669,1.55566 -27.68801,1.63568 -1.08131,0.0801 -2.60479,-0.0337 -3.38554,-0.25258 z"
         id="path8" /><g
         id="g19"
         transform="matrix(2.1591311,0,0,2.1591311,-20.344032,-172.28947)"><path
           d="m 137.51767,164.85355 c -1.79473,0.13466 -3.3657,-1.217 -3.50036,-3.01173 -0.13466,-1.79473 1.21701,-3.3657 3.01174,-3.50036 1.79474,-0.13466 3.36569,1.21701 3.50035,3.01174 0.13467,1.79474 -1.217,3.36569 -3.01173,3.50035 z m -0.39089,-5.20967 c -1.07711,0.0808 -1.88786,1.02311 -1.80705,2.10022 0.0808,1.07709 1.02311,1.88786 2.10022,1.80704 1.07709,-0.0808 1.88786,-1.02312 1.80704,-2.10021 -0.0808,-1.07711 -1.02312,-1.88786 -2.10021,-1.80705 z"
           fill=""
           id="path1-5"
           style="fill:#a63fad;fill-opacity:1;stroke-width:0.0255093"
           sodipodi:nodetypes="ssssssssss" /><path
           d="m 144.45268,152.54544 c -3.37979,0.25359 -6.34797,1.0526 -8.82501,2.37531 -2.04126,1.09095 -3.7509,2.53422 -5.08199,4.29223 -0.24783,0.32771 -0.47585,0.65784 -0.68552,0.98791 -1.11713,0.15845 -2.23233,0.6914 -3.31787,1.5849 -0.9191,0.75527 -1.82237,1.77392 -2.6871,3.02675 -1.45305,2.10508 -2.2908,4.13651 -2.32633,4.22169 a 0.65304027,0.65304027 0 0 0 1.09843,0.67462 c 0.006,-0.007 0.58265,-0.66586 1.59907,-1.34592 0.83809,-0.56058 2.14371,-1.24401 3.76793,-1.46934 0.49212,1.02528 1.7682,2.19999 2.37727,2.72403 0.60906,0.52404 1.96104,1.61055 3.04828,1.94416 0.0196,1.63966 -0.46138,3.03264 -0.89064,3.945 -0.52197,1.10792 -1.08619,1.77501 -1.09101,1.78061 a 0.65434636,0.65434636 0 0 0 0.82977,0.98685 c 0.0789,-0.0478 1.96258,-1.17933 3.82727,-2.93024 1.10977,-1.04201 1.98222,-2.08717 2.59189,-3.10868 0.72141,-1.20802 1.08074,-2.38887 1.07204,-3.51722 0.29389,-0.25519 0.5863,-0.52991 0.87455,-0.82527 1.53971,-1.57853 2.7117,-3.4844 3.48582,-5.66559 0.93838,-2.64538 1.28541,-5.70088 1.03182,-9.08065 l -0.0489,-0.65122 -0.65122,0.0489 z m -20.3921,14.3761 c 1.10606,-1.89437 2.83609,-4.2704 4.92198,-5.13287 -0.73415,1.54428 -1.06975,2.93684 -1.16264,3.81086 a 10.166531,10.166531 0 0 0 -3.75934,1.32201 z m 9.92102,8.53128 a 10.136491,10.136491 0 0 0 0.74512,-3.91182 c 0.84908,-0.22219 2.17727,-0.76192 3.59349,-1.7169 -0.54313,2.18743 -2.6331,4.25256 -4.33991,5.62882 z m 5.71802,-8.47091 c -2.52971,2.5932 -5.29457,3.3442 -5.69832,3.37449 -0.003,2.1e-4 -0.27002,0.0146 -1.02694,-0.43768 -0.52792,-0.31533 -1.15042,-0.77418 -1.74969,-1.28979 -0.59926,-0.51561 -1.14587,-1.06268 -1.53644,-1.53763 -0.56059,-0.68092 -0.58583,-0.94752 -0.58603,-0.95012 -0.0303,-0.40376 0.29972,-3.24973 2.48639,-6.13808 2.61698,-3.45502 6.86141,-5.55606 12.30477,-6.09677 0.27762,5.4631 -1.16522,9.97343 -4.19234,13.07678 z"
           fill=""
           id="path2-7"
           style="fill:#a63fad;fill-opacity:1;stroke-width:0.0255093" /><path
           style="fill:#ffffff;fill-opacity:1;stroke:#ffffff;stroke-width:0.14187"
           d="m 133.10325,169.88741 c -1.57184,-0.8785 -3.86464,-3.15595 -3.92,-3.89375 -0.0132,-0.17555 0.11686,-0.83759 0.28897,-1.4712 1.09321,-4.02466 4.07108,-7.27181 8.30014,-9.05071 1.38089,-0.58085 4.10847,-1.30028 5.25632,-1.38641 l 0.76404,-0.0573 0.049,0.65383 c 0.14743,1.96487 -0.37557,5.30929 -1.14792,7.34065 -1.26231,3.31999 -3.7525,6.12204 -6.67119,7.50666 -1.70753,0.81005 -2.03839,0.85065 -2.91941,0.35825 z m 5.89549,-5.48446 c 1.9103,-1.13782 2.15726,-3.72824 0.50189,-5.26435 -1.34784,-1.25076 -3.52447,-1.11084 -4.74064,0.30473 -0.60479,0.70396 -0.83672,1.4639 -0.75977,2.48951 0.1807,2.40829 2.87059,3.73755 4.99852,2.47011 z"
           id="path9" /><path
           style="fill:#ffffff;fill-opacity:1;stroke:#ffffff;stroke-width:0.14187"
           d="m 136.52042,163.2874 c -0.93867,-0.38409 -1.37086,-1.57209 -0.90406,-2.48505 0.32903,-0.64349 0.79711,-0.97273 1.46771,-1.03236 1.95965,-0.17426 2.80781,2.39612 1.13144,3.42886 -0.51431,0.31684 -1.06666,0.34569 -1.69509,0.0885 z"
           id="path10" /><path
           style="fill:#ffffff;fill-opacity:1;stroke:#ffffff;stroke-width:0.14187"
           d="m 134.30396,174.89412 c 0.19465,-0.64869 0.42634,-1.96446 0.45766,-2.59902 l 0.0346,-0.70133 0.72108,-0.24303 c 0.3966,-0.13367 1.1326,-0.46816 1.63556,-0.74332 0.50297,-0.27515 0.94148,-0.5023 0.97448,-0.50478 0.20688,-0.0155 -0.75609,1.67482 -1.4536,2.5516 -0.92412,1.1616 -2.4905,2.64211 -2.3698,2.23988 z"
           id="path12" /><path
           style="fill:#ffffff;fill-opacity:1;stroke:#ffffff;stroke-width:0.14187"
           d="m 124.64551,166.1253 c 0.63442,-1.05489 2.33938,-2.9625 3.15848,-3.53388 0.46686,-0.32567 0.87472,-0.56987 0.90634,-0.54266 0.0316,0.0272 -0.0765,0.3716 -0.24022,0.76532 -0.16374,0.39372 -0.40291,1.18628 -0.53148,1.76125 -0.22608,1.01101 -0.24853,1.0465 -0.68261,1.07907 -0.40605,0.0305 -1.97849,0.53824 -2.65042,0.85586 -0.24083,0.11385 -0.23682,0.0752 0.0399,-0.38496 z"
           id="path13" /></g><circle
         id="path16"
         style="fill:#ffffff;stroke:#ffffff;stroke-width:0.571269"
         cx="198.53862"
         cy="182.90332"
         r="0.043645144" /><path
         style="fill:#a03fb1;fill-opacity:1;stroke:#a63fad;stroke-width:0.571269;stroke-opacity:1"
         d="m 143.81795,207.80615 c 0,0 -6.35621,15.78927 -2.24636,21.84784 5.91781,8.72382 19.89393,9.07673 30.42587,8.62534 21.49276,-0.92117 42.0551,-10.1879 60.357,-22.84998 15.50633,-10.72798 24.04306,-22.51289 26.4752,-19.09162 2.62133,1.96602 -5.65298,14.12938 -17.69413,24.2475 -21.94933,18.44392 -51.49262,31.17384 -79.62348,28.83483 -9.91821,-0.82468 -22.32548,-5.41735 -26.00868,-14.66318 -3.47927,-8.73388 8.31458,-26.95073 8.31458,-26.95073 z"
         id="path19"
         sodipodi:nodetypes="caascsaac" /><path
         style="fill:#ffffff;fill-opacity:1;stroke:#a63fad;stroke-width:0.571269;stroke-opacity:1"
         d="m 143.81795,207.80615 c 0,0 -8.65583,18.69739 -4.21238,26.43522 5.0092,8.72299 18.07328,10.88333 28.1322,10.919 24.2098,0.0859 49.59146,-13.13693 67.89336,-25.799 15.50634,-10.72799 21.88785,-22.36832 21.88785,-22.36832 0,0 -6.96365,12.49105 -19.0048,22.60917 -21.94934,18.44392 -49.55124,29.78629 -76.67446,27.85182 -9.18752,-0.65525 -20.58982,-4.62557 -24.37035,-13.02483 -3.74452,-8.3193 6.34858,-26.62306 6.34858,-26.62306 z"
         id="path20"
         sodipodi:nodetypes="caascsaac" /></g><text
       xml:space="preserve"
       style="font-style:normal;font-variant:normal;font-weight:normal;font-stretch:normal;font-size:42.6774px;line-height:1;font-family:'Arial Rounded MT Bold';-inkscape-font-specification:'Arial Rounded MT Bold, ';fill:#ffffff;fill-opacity:1;stroke:#a03fad;stroke-width:0.666833;stroke-opacity:1"
       x="53.374371"
       y="291.30832"
       id="text20"
       transform="scale(0.93269914,1.0721571)"><tspan
         sodipodi:role="line"
         style="font-style:normal;font-variant:normal;font-weight:normal;font-stretch:normal;font-size:42.6774px;font-family:'Arial Rounded MT Bold';-inkscape-font-specification:'Arial Rounded MT Bold, ';fill:#a63fae;fill-opacity:1;stroke:#a03fad;stroke-width:0.666833;stroke-opacity:1"
         x="53.374371"
         y="291.30832"
         id="tspan21">Ultimate Notion</tspan></text></g></svg>
