<?xml version="1.0" encoding="UTF-8" standalone="no"?>
<!-- Created with Inkscape (http://www.inkscape.org/) -->

<svg
   width="161.233mm"
   height="56.99604mm"
   viewBox="0 0 161.233 56.996038"
   version="1.1"
   id="svg1"
   xml:space="preserve"
   inkscape:version="1.3-dev (77bc73e, 2022-05-18)"
   sodipodi:docname="logo_with_text_left.svg"
   xmlns:inkscape="http://www.inkscape.org/namespaces/inkscape"
   xmlns:sodipodi="http://sodipodi.sourceforge.net/DTD/sodipodi-0.dtd"
   xmlns="http://www.w3.org/2000/svg"
   xmlns:svg="http://www.w3.org/2000/svg"><sodipodi:namedview
     id="namedview1"
     pagecolor="#ffffff"
     bordercolor="#000000"
     borderopacity="0.25"
     inkscape:showpageshadow="2"
     inkscape:pageopacity="0.0"
     inkscape:pagecheckerboard="true"
     inkscape:deskcolor="#d1d1d1"
     inkscape:document-units="mm"
     showgrid="false"
     inkscape:zoom="2.512042"
     inkscape:cx="388.13045"
     inkscape:cy="118.03147"
     inkscape:window-width="2549"
     inkscape:window-height="1031"
     inkscape:window-x="316"
     inkscape:window-y="264"
     inkscape:window-maximized="0"
     inkscape:current-layer="g1" /><defs
     id="defs1" /><g
     inkscape:label="Layer 1"
     inkscape:groupmode="layer"
     id="layer1"
     transform="translate(-30.116737,-154.01296)"><g
       id="g1"
       transform="translate(0.29393165,-0.27514799)"><text
         xml:space="preserve"
         style="font-style:normal;font-variant:normal;font-weight:normal;font-stretch:normal;font-size:19.766px;line-height:1;font-family:'Arial Rounded MT Bold';-inkscape-font-specification:'Arial Rounded MT Bold, ';fill:#ffffff;fill-opacity:1;stroke:#a03fad;stroke-width:0.308843;stroke-opacity:1"
         x="37.116863"
         y="172.64273"
         id="text20"
         transform="scale(0.93269913,1.0721571)"><tspan
           sodipodi:role="line"
           id="tspan20"
           style="font-style:normal;font-variant:normal;font-weight:normal;font-stretch:normal;font-size:19.766px;font-family:'Arial Rounded MT Bold';-inkscape-font-specification:'Arial Rounded MT Bold, ';fill:#a63fae;fill-opacity:1;stroke:#a03fad;stroke-width:0.308843;stroke-opacity:1"
           x="37.116863"
           y="172.64273">Ultimate</tspan><tspan
           sodipodi:role="line"
           style="font-style:normal;font-variant:normal;font-weight:normal;font-stretch:normal;font-size:19.766px;font-family:'Arial Rounded MT Bold';-inkscape-font-specification:'Arial Rounded MT Bold, ';fill:#a63fae;fill-opacity:1;stroke:#a03fad;stroke-width:0.308843;stroke-opacity:1"
           x="37.116863"
           y="192.40874"
           id="tspan21">Notion</tspan></text><path
         d="m 121.77565,166.93976 24.2092,-1.78815 c 2.97381,-0.25507 3.73771,-0.0831 5.60767,1.27625 l 7.72788,5.44404 c 1.2745,0.93629 1.69889,1.19136 1.69889,2.21078 v 29.85755 c 0,1.87127 -0.67946,2.97819 -3.05825,3.14707 l -28.11318,1.70283 c -1.78507,0.0844 -2.63518,-0.17063 -3.57015,-1.362 l -5.6908,-7.40018 c -1.02073,-1.36199 -1.44381,-2.38141 -1.44381,-3.57321 v -26.53986 c 0,-1.53 0.67947,-2.80581 2.63255,-2.97512 z"
         fill="#ffffff"
         id="path1"
         style="display:inline;stroke-width:0.437519" /><path
         fill-rule="evenodd"
         clip-rule="evenodd"
         d="m 145.98485,165.15206 -24.2092,1.78813 c -1.95308,0.16888 -2.63255,1.44512 -2.63255,2.97469 v 26.53986 c 0,1.19136 0.42308,2.21078 1.44381,3.57321 l 5.6908,7.39975 c 0.93497,1.19136 1.78508,1.44687 3.57015,1.36199 l 28.11362,-1.70195 c 2.37703,-0.16932 3.05824,-1.27624 3.05824,-3.14706 v -29.85756 c 0,-0.96692 -0.38194,-1.24562 -1.50636,-2.07079 l -7.92084,-5.58447 c -1.86951,-1.35937 -2.63386,-1.53132 -5.60767,-1.27625 z m -15.50128,8.44235 c -2.29566,0.15444 -2.8163,0.18944 -4.1201,-0.87066 l -3.31464,-2.63648 c -0.33689,-0.34127 -0.16758,-0.76698 0.68121,-0.85186 l 23.27292,-1.70063 c 1.95439,-0.17063 2.97206,0.51058 3.73641,1.1056 l 3.99148,2.89201 c 0.17063,0.0862 0.59502,0.59502 0.0844,0.59502 l -24.03419,1.44687 -0.29752,0.0206 z m -2.6763,30.09119 v -25.34675 c 0,-1.10692 0.33996,-1.6175 1.35762,-1.70326 l 27.60479,-1.61619 c 0.93629,-0.0845 1.35936,0.51059 1.35936,1.61576 v 25.17786 c 0,1.10692 -0.17063,2.04321 -1.69888,2.12766 l -26.41605,1.53131 c -1.52825,0.0845 -2.20639,-0.42439 -2.20639,-1.78639 z"
         fill="#000000"
         id="path2"
         style="display:inline;fill:#a03fb1;fill-opacity:1;stroke-width:0.437519"
         sodipodi:nodetypes="ccssccccssccccccccccccccccsccsscccc" /><path
         style="fill:#a03fb1;fill-opacity:1;stroke:#a63fad;stroke-width:0.261764;stroke-opacity:1"
         d="m 117.67862,179.78476 c 0,0 -2.47079,6.56704 -1.12547,9.43409 1.34613,2.86879 8.85347,4.13636 13.55698,3.95227 9.84982,-0.38552 19.27029,-4.66825 27.6565,-10.47021 7.10523,-4.91572 11.01689,-10.31575 12.13133,-8.74807 1.20114,0.90086 -2.59028,6.47429 -8.10771,11.11057 -10.05752,8.45128 -23.5947,14.28433 -36.48469,13.21256 -4.54467,-0.37788 -10.33686,-2.44125 -11.91757,-6.71889 -1.4477,-3.91769 4.29063,-11.77232 4.29063,-11.77232 z"
         id="path19"
         sodipodi:nodetypes="csascsaac" /><path
         style="fill:#ffffff;fill-opacity:1;stroke:#a63fad;stroke-width:0.261764;stroke-opacity:1"
         d="m 117.48632,180.16937 c 0,0 -4.04261,7.82923 -2.21864,11.15149 2.21819,4.04031 8.28145,4.98691 12.8906,5.00325 11.0933,0.0394 22.72356,-6.01954 31.10977,-11.82149 7.10524,-4.91573 10.02934,-10.2495 10.02934,-10.2495 0,0 -3.19085,5.72358 -8.70829,10.35986 -10.05752,8.45128 -22.70513,13.64853 -35.1334,12.76213 -4.20986,-0.30025 -9.51794,-2.08306 -11.16686,-5.96818 -1.52155,-3.58501 3.19748,-11.23756 3.19748,-11.23756 z"
         id="path20"
         sodipodi:nodetypes="caascsaac" /><path
         fill="#a03fb1"
         d="m 176.46262,178.49382 -2.11255,-3.67302 c 1.51634,-0.77687 2.90736,-1.74371 4.17138,-2.8286 l -2.05883,6.50162 m -8.74688,-8.88408 -4.06894,-1.18232 5.82887,-3.54043 c -0.75456,1.48509 -1.36438,3.06554 -1.75993,4.72275 m 12.69304,-10.24009 c 0.28306,-0.034 0.53568,-0.0644 0.75397,-0.0395 0.3407,1.38421 0.49701,4.29777 -2.42085,8.0113 -1.51051,1.93475 -3.40317,3.50531 -5.60192,4.66147 l -2.428,-1.86135 c 0.64929,-2.44645 1.72681,-4.65724 3.22963,-6.57057 2.45436,-3.1247 4.87026,-4.00965 6.46715,-4.20153 m -0.24287,-2.02137 c -2.00116,0.24045 -4.94946,1.30214 -7.83067,4.97027 -1.94748,2.47939 -2.97885,5.07424 -3.58168,7.31003 -0.19199,0.79205 0.0997,1.59774 0.72359,2.09695 l 2.41023,1.884 c 0.4302,0.33791 0.9736,0.50846 1.50927,0.44409 0.23226,-0.0279 0.46772,-0.11781 0.68928,-0.23666 2.42887,-1.27642 4.56007,-3.05247 6.2535,-5.2114 5.0332,-6.40789 2.28939,-11.1534 2.28939,-11.1534 0,0 -0.96709,-0.28364 -2.46291,-0.10391 m -3.82414,8.10814 c -0.88305,-0.69365 -1.03727,-1.97723 -0.34367,-2.86028 0.69364,-0.88309 1.97722,-1.03731 2.86028,-0.34367 0.87296,0.69482 1.0373,1.97718 0.34367,2.86028 -0.69361,0.88304 -1.97719,1.03727 -2.86028,0.34367 m -4.86197,7.83296 -1.5963,-1.25384 1.5963,1.25384"
         id="path1-8"
         style="stroke-width:1.01797"
         sodipodi:nodetypes="ccccccccccccccccscccscccccscscccc" /><path
         style="fill:#ffffff;stroke:#ffffff;stroke-width:0.0961523"
         d="m 171.95758,171.03165 c -0.941,-0.72827 -1.14779,-0.9324 -1.12109,-1.10667 0.13499,-0.88099 1.22572,-3.41075 2.02546,-4.69769 1.93154,-3.10825 4.50251,-5.19355 7.04819,-5.71673 1.10346,-0.22679 1.21206,-0.21308 1.26869,0.16017 0.13933,0.91841 0.14717,1.20322 0.0554,2.01357 -0.3683,3.25117 -2.986,6.9532 -6.63243,9.37975 -0.39663,0.26394 -0.89422,0.56555 -1.10575,0.67024 l -0.38461,0.19034 z m 6.54516,-5.31705 c 1.4432,-0.65548 1.56222,-2.8143 0.1992,-3.61307 -1.09558,-0.64206 -2.39202,-0.27222 -2.96197,0.84498 -0.29772,0.58357 -0.22272,1.54994 0.16277,2.09723 0.55975,0.79471 1.68695,1.08556 2.6,0.67086 z"
         id="path5" /></g></g></svg>
